<svg xmlns="http://www.w3.org/2000/svg">
  <symbol id="menu" viewBox="0 0 24 24">
    <g id="SVGRepo_iconCarrier">
      <path d="M8 12H9M16 12H12" fill="none" stroke="currentColor" stroke-width="1.5" stroke-linecap="round"></path>
      <path d="M16 8H15M12 8H8" fill="none" stroke="currentColor" stroke-width="1.5" stroke-linecap="round"></path>
      <path d="M8 16H13" fill="none" stroke="currentColor" stroke-width="1.5" stroke-linecap="round"></path>
      <path d="M3 14V10C3 6.22876 3 4.34315 4.17157 3.17157C5.34315 2 7.22876 2 11 2H13C16.7712 2 18.6569 2 19.8284 3.17157C20.4816 3.82476 20.7706 4.69989 20.8985 6M21 10V14C21 17.7712 21 19.6569 19.8284 20.8284C18.6569 22 16.7712 22 13 22H11C7.22876 22 5.34315 22 4.17157 20.8284C3.51839 20.1752 3.22937 19.3001 3.10149 18" fill="none" stroke="currentColor" stroke-width="1.5" stroke-linecap="round"></path>
    </g>
  </symbol>

  <symbol id="dish" viewBox="0 0 24 24">
    <g id="SVGRepo_iconCarrier"> 
      <path d="M3.62662 16.3991C3.80361 19.054 3.89211 20.3815 4.75712 21.1907C5.62212 22 6.95253 22 9.61333 22H10.3867C13.0475 22 14.3779 22 15.2429 21.1907C16.1079 20.3815 16.1964 19.054 16.3734 16.3991L16.7156 11.2661C16.8489 9.26687 16.9155 8.26726 16.3227 7.63363C15.7299 7 14.7281 7 12.7245 7H7.27555C5.27191 7 4.27009 7 3.67729 7.63363C3.08449 8.26726 3.15113 9.26687 3.28441 11.2661L3.34221 12.133" fill="none" stroke="currentColor" stroke-width="1.5" stroke-linecap="round"></path> 
      <path d="M17 17H18C20.2091 17 22 15.2091 22 13C22 10.7909 20.2091 9 18 9H17" fill="none" stroke="currentColor" stroke-width="1.5"></path> 
      <path d="M10 18.75C10.4142 18.75 10.75 18.4142 10.75 18C10.75 17.5858 10.4142 17.25 10 17.25V18.75ZM13.5 17.25C13.0858 17.25 12.75 17.5858 12.75 18C12.75 18.4142 13.0858 18.75 13.5 18.75V17.25ZM10 17.25H4V18.75H10V17.25ZM16 17.25H13.5V18.75H16V17.25Z" fill="currentColor"></path> 
      <path d="M6.05081 5.0614L6.46143 4.48574C6.6882 4.16781 6.61431 3.72623 6.29638 3.49945C5.97845 3.27267 5.90455 2.8311 6.13133 2.51317L6.54195 1.9375M14.0508 5.0614L14.4614 4.48574C14.6882 4.16781 14.6143 3.72623 14.2964 3.49945C13.9784 3.27267 13.9046 2.8311 14.1313 2.51317L14.5419 1.9375M10.0508 5.0614L10.4614 4.48574C10.6882 4.16781 10.6143 3.72623 10.2964 3.49945C9.97845 3.27267 9.90455 2.8311 10.1313 2.51317L10.5419 1.9375" stroke="currentColor" stroke-width="1.5" stroke-linecap="round"></path> 
    </g>
  </symbol>

  <symbol id="order" viewBox="0 0 24 24">
    <g id="SVGRepo_iconCarrier">
      <path d="M7.5 18C8.32843 18 9 18.6716 9 19.5C9 20.3284 8.32843 21 7.5 21C6.67157 21 6 20.3284 6 19.5C6 18.6716 6.67157 18 7.5 18Z" fill="none" stroke="currentColor" stroke-width="1.5"></path>
      <path d="M16.5 18.0001C17.3284 18.0001 18 18.6716 18 19.5001C18 20.3285 17.3284 21.0001 16.5 21.0001C15.6716 21.0001 15 20.3285 15 19.5001C15 18.6716 15.6716 18.0001 16.5 18.0001Z" fill="none" stroke="currentColor" stroke-width="1.5"></path>
      <path d="M13 13V11M13 11V9M13 11H15M13 11H11" fill="none" stroke="currentColor" stroke-width="1.5" stroke-linecap="round"></path>
      <path d="M2 3L2.26121 3.09184C3.5628 3.54945 4.2136 3.77826 4.58584 4.32298C4.95808 4.86771 4.95808 5.59126 4.95808 7.03836V9.76C4.95808 12.7016 5.02132 13.6723 5.88772 14.5862C6.75412 15.5 8.14857 15.5 10.9375 15.5H12M16.2404 15.5C17.8014 15.5 18.5819 15.5 19.1336 15.0504C19.6853 14.6008 19.8429 13.8364 20.158 12.3075L20.6578 9.88275C21.0049 8.14369 21.1784 7.27417 20.7345 6.69708C20.2906 6.12 18.7738 6.12 17.0888 6.12H11.0235M4.95808 6.12H7" fill="none" stroke="currentColor" stroke-width="1.5" stroke-linecap="round"></path>
    </g>
  </symbol>

  <symbol id="client" viewBox="0 0 24 24">
    <g id="SVGRepo_iconCarrier">
      <circle cx="10" cy="6" r="4" fill="none" stroke="currentColor" stroke-width="1.5"></circle>
      <path d="M21 10H19M19 10H17M19 10L19 8M19 10L19 12" fill="none" stroke="currentColor" stroke-width="1.5" stroke-linecap="round"></path>
      <path d="M17.9975 18C18 17.8358 18 17.669 18 17.5C18 15.0147 14.4183 13 10 13C5.58172 13 2 15.0147 2 17.5C2 19.9853 2 22 10 22C12.231 22 13.8398 21.8433 15 21.5634" fill="none" stroke="currentColor" stroke-width="1.5" stroke-linecap="round"></path>
    </g>
  </symbol>

  <symbol id="trash" viewBox="0 0 24 24">
    <g id="SVGRepo_iconCarrier"> 
      <path d="M7.67004 11.6064L8.20037 12.1367L7.67004 11.6064ZM6 13.9682H5.25H6ZM10.0318 18V18.75V18ZM11.6064 7.67004L11.076 7.13971L11.6064 7.67004ZM12.6506 16.073C12.9435 16.3659 13.4183 16.3659 13.7112 16.073C14.0041 15.7801 14.0041 15.3053 13.7112 15.0124L12.6506 16.073ZM8.98764 10.2888C8.69474 9.99588 8.21987 9.99588 7.92698 10.2888C7.63408 10.5817 7.63408 11.0565 7.92698 11.3494L8.98764 10.2888ZM15.7996 11.8633L11.8633 15.7996L12.924 16.8603L16.8603 12.924L15.7996 11.8633ZM8.20037 12.1367L12.1367 8.20037L11.076 7.13971L7.13971 11.076L8.20037 12.1367ZM8.20037 15.7996C7.6287 15.228 7.25442 14.8514 7.01378 14.536C6.78634 14.2379 6.75 14.0841 6.75 13.9682H5.25C5.25 14.544 5.492 15.0144 5.82124 15.4459C6.13728 15.8601 6.59802 16.3186 7.13971 16.8603L8.20037 15.7996ZM7.13971 11.076C6.59802 11.6177 6.13728 12.0762 5.82124 12.4904C5.492 12.922 5.25 13.3924 5.25 13.9682H6.75C6.75 13.8522 6.78634 13.6984 7.01378 13.4003C7.25442 13.0849 7.6287 12.7084 8.20037 12.1367L7.13971 11.076ZM11.8633 15.7996C11.2916 16.3713 10.9151 16.7456 10.5997 16.9862C10.3016 17.2137 10.1478 17.25 10.0318 17.25V18.75C10.6076 18.75 11.078 18.508 11.5096 18.1788C11.9238 17.8627 12.3823 17.402 12.924 16.8603L11.8633 15.7996ZM7.13971 16.8603C7.6814 17.402 8.13989 17.8627 8.55411 18.1788C8.98563 18.508 9.45604 18.75 10.0318 18.75V17.25C9.91588 17.25 9.76207 17.2137 9.46398 16.9862C9.14858 16.7456 8.77204 16.3713 8.20037 15.7996L7.13971 16.8603ZM15.7996 8.20037C16.3713 8.77204 16.7456 9.14858 16.9862 9.46398C17.2137 9.76207 17.25 9.91588 17.25 10.0318H18.75C18.75 9.45604 18.508 8.98563 18.1788 8.55411C17.8627 8.13989 17.402 7.6814 16.8603 7.13971L15.7996 8.20037ZM16.8603 12.924C17.402 12.3823 17.8627 11.9238 18.1788 11.5096C18.508 11.078 18.75 10.6076 18.75 10.0318H17.25C17.25 10.1478 17.2137 10.3016 16.9862 10.5997C16.7456 10.9151 16.3713 11.2916 15.7996 11.8633L16.8603 12.924ZM16.8603 7.13971C16.3186 6.59802 15.8601 6.13728 15.4459 5.82124C15.0144 5.492 14.544 5.25 13.9682 5.25V6.75C14.0841 6.75 14.2379 6.78634 14.536 7.01378C14.8514 7.25442 15.228 7.6287 15.7996 8.20037L16.8603 7.13971ZM12.1367 8.20037C12.7084 7.6287 13.0849 7.25442 13.4003 7.01378C13.6984 6.78634 13.8522 6.75 13.9682 6.75V5.25C13.3924 5.25 12.922 5.492 12.4904 5.82124C12.0762 6.13728 11.6177 6.59802 11.076 7.13971L12.1367 8.20037ZM13.7112 15.0124L8.98764 10.2888L7.92698 11.3494L12.6506 16.073L13.7112 15.0124Z" stroke="none" fill="currentColor" stroke-width="1.5" stroke-linecap="round"></path> 
      <path d="M7 3.33782C8.47087 2.48697 10.1786 2 12 2C17.5228 2 22 6.47715 22 12C22 17.5228 17.5228 22 12 22C6.47715 22 2 17.5228 2 12C2 10.1786 2.48697 8.47087 3.33782 7" stroke="currentColor" fill="none" stroke-width="1.5" stroke-linecap="round"></path> 
    </g>
  </symbol>

  <symbol id="edit" viewBox="0 0 24 24">
    <g id="SVGRepo_iconCarrier"> 
      <path d="M16.652 3.45506L17.3009 2.80624C18.3759 1.73125 20.1188 1.73125 21.1938 2.80624C22.2687 3.88124 22.2687 5.62415 21.1938 6.69914L20.5449 7.34795M16.652 3.45506C16.652 3.45506 16.7331 4.83379 17.9497 6.05032C19.1662 7.26685 20.5449 7.34795 20.5449 7.34795M16.652 3.45506L10.6872 9.41993C10.2832 9.82394 10.0812 10.0259 9.90743 10.2487C9.70249 10.5114 9.52679 10.7957 9.38344 11.0965C9.26191 11.3515 9.17157 11.6225 8.99089 12.1646L8.41242 13.9M20.5449 7.34795L14.5801 13.3128C14.1761 13.7168 13.9741 13.9188 13.7513 14.0926C13.4886 14.2975 13.2043 14.4732 12.9035 14.6166C12.6485 14.7381 12.3775 14.8284 11.8354 15.0091L10.1 15.5876M10.1 15.5876L8.97709 15.9619C8.71035 16.0508 8.41626 15.9814 8.21744 15.7826C8.01862 15.5837 7.9492 15.2897 8.03811 15.0229L8.41242 13.9M10.1 15.5876L8.41242 13.9" stroke="currentColor" fill="none" stroke-width="1.5"></path> 
      <path d="M22 12C22 17.5228 17.5228 22 12 22C6.47715 22 2 17.5228 2 12C2 6.47715 6.47715 2 12 2" stroke="currentColor" fill="none" stroke-width="1.5" stroke-linecap="round"></path> 
    </g>
  </symbol>

  <symbol id="add" viewBox="0 0 24 24">
    <g id="SVGRepo_iconCarrier"> 
      <path d="M15 12L12 12M12 12L9 12M12 12L12 9M12 12L12 15" stroke="currentColor" fill="none" stroke-width="1.5" stroke-linecap="round"></path> 
      <path d="M7 3.33782C8.47087 2.48697 10.1786 2 12 2C17.5228 2 22 6.47715 22 12C22 17.5228 17.5228 22 12 22C6.47715 22 2 17.5228 2 12C2 10.1786 2.48697 8.47087 3.33782 7" stroke="currentColor" fill="none" stroke-width="1.5" stroke-linecap="round"></path> 
    </g>
  </symbol>

  <symbol id="download" viewBox="0 0 24 24">
    <g id="SVGRepo_iconCarrier"> 
      <path d="M12 3V16M12 16L16 11.625M12 16L8 11.625" stroke="currentColor" fill="none" stroke-width="1.5" stroke-linecap="round" stroke-linejoin="round"></path> 
      <path d="M15 21H9C6.17157 21 4.75736 21 3.87868 20.1213C3 19.2426 3 17.8284 3 15M21 15C21 17.8284 21 19.2426 20.1213 20.1213C19.8215 20.4211 19.4594 20.6186 19 20.7487" stroke="currentColor" fill="none" stroke-width="1.5" stroke-linecap="round" stroke-linejoin="round"></path> 
    </g>
  </symbol>
</svg>